<mxfile host="app.diagrams.net" modified="2024-05-18T14:53:27.586Z" agent="Mozilla/5.0 (X11; Ubuntu; Linux x86_64; rv:125.0) Gecko/20100101 Firefox/125.0" etag="EWtAU7bLPfM2jymWkydI" version="24.4.0" type="device">
  <diagram name="Page-1" id="ndZQbKBwevXoO8bsmaXa">
    <mxGraphModel dx="1434" dy="795" grid="1" gridSize="10" guides="1" tooltips="1" connect="1" arrows="1" fold="1" page="1" pageScale="1" pageWidth="850" pageHeight="1100" math="0" shadow="0">
      <root>
        <mxCell id="0" />
        <mxCell id="1" parent="0" />
        <mxCell id="eOfoeHNz91V3WnYGeERz-8" value="" style="rounded=1;whiteSpace=wrap;html=1;" vertex="1" parent="1">
          <mxGeometry x="592.5" y="100" width="140" height="100" as="geometry" />
        </mxCell>
        <mxCell id="eOfoeHNz91V3WnYGeERz-7" value="" style="rounded=1;whiteSpace=wrap;html=1;" vertex="1" parent="1">
          <mxGeometry x="307.5" y="20" width="140" height="180" as="geometry" />
        </mxCell>
        <mxCell id="eOfoeHNz91V3WnYGeERz-5" value="" style="rounded=1;whiteSpace=wrap;html=1;" vertex="1" parent="1">
          <mxGeometry x="30" y="20" width="140" height="180" as="geometry" />
        </mxCell>
        <mxCell id="eOfoeHNz91V3WnYGeERz-1" value="سرور نقشه" style="rounded=0;whiteSpace=wrap;html=1;" vertex="1" parent="1">
          <mxGeometry x="40" y="40" width="120" height="60" as="geometry" />
        </mxCell>
        <mxCell id="eOfoeHNz91V3WnYGeERz-2" value="رابط کاربری" style="rounded=0;whiteSpace=wrap;html=1;" vertex="1" parent="1">
          <mxGeometry x="317.5" y="40" width="120" height="60" as="geometry" />
        </mxCell>
        <mxCell id="eOfoeHNz91V3WnYGeERz-3" value="پردازشگر کلاینت" style="rounded=0;whiteSpace=wrap;html=1;" vertex="1" parent="1">
          <mxGeometry x="317.5" y="120" width="120" height="60" as="geometry" />
        </mxCell>
        <mxCell id="eOfoeHNz91V3WnYGeERz-4" value="&lt;div&gt;سرور موقعیت&lt;br&gt;&lt;/div&gt;&lt;div&gt;(gpsd)&lt;/div&gt;" style="rounded=0;whiteSpace=wrap;html=1;" vertex="1" parent="1">
          <mxGeometry x="602.5" y="120" width="120" height="60" as="geometry" />
        </mxCell>
        <mxCell id="eOfoeHNz91V3WnYGeERz-6" value="کاشی‌های نقشه" style="shape=cylinder3;whiteSpace=wrap;html=1;boundedLbl=1;backgroundOutline=1;size=15;" vertex="1" parent="1">
          <mxGeometry x="70" y="110" width="60" height="80" as="geometry" />
        </mxCell>
        <mxCell id="eOfoeHNz91V3WnYGeERz-9" value="" style="endArrow=classic;startArrow=none;html=1;rounded=0;exitX=1;exitY=0.5;exitDx=0;exitDy=0;entryX=0;entryY=0.5;entryDx=0;entryDy=0;startFill=0;" edge="1" parent="1" source="eOfoeHNz91V3WnYGeERz-1" target="eOfoeHNz91V3WnYGeERz-2">
          <mxGeometry width="50" height="50" relative="1" as="geometry">
            <mxPoint x="170" y="110" as="sourcePoint" />
            <mxPoint x="220" y="60" as="targetPoint" />
          </mxGeometry>
        </mxCell>
        <mxCell id="eOfoeHNz91V3WnYGeERz-10" value="" style="endArrow=none;startArrow=classic;html=1;rounded=0;entryX=0;entryY=0.5;entryDx=0;entryDy=0;endFill=0;" edge="1" parent="1" source="eOfoeHNz91V3WnYGeERz-3" target="eOfoeHNz91V3WnYGeERz-4">
          <mxGeometry width="50" height="50" relative="1" as="geometry">
            <mxPoint x="472.5" y="180" as="sourcePoint" />
            <mxPoint x="522.5" y="130" as="targetPoint" />
          </mxGeometry>
        </mxCell>
        <mxCell id="eOfoeHNz91V3WnYGeERz-11" value="" style="endArrow=classic;startArrow=classic;html=1;rounded=0;entryX=0.5;entryY=1;entryDx=0;entryDy=0;" edge="1" parent="1" source="eOfoeHNz91V3WnYGeERz-3" target="eOfoeHNz91V3WnYGeERz-2">
          <mxGeometry width="50" height="50" relative="1" as="geometry">
            <mxPoint x="372.5" y="150" as="sourcePoint" />
            <mxPoint x="422.5" y="100" as="targetPoint" />
          </mxGeometry>
        </mxCell>
        <mxCell id="eOfoeHNz91V3WnYGeERz-12" value="شبکه‌" style="ellipse;shape=cloud;whiteSpace=wrap;html=1;" vertex="1" parent="1">
          <mxGeometry x="230" y="320" width="295" height="170" as="geometry" />
        </mxCell>
        <mxCell id="eOfoeHNz91V3WnYGeERz-13" value="" style="endArrow=classic;html=1;rounded=0;entryX=0.502;entryY=0.092;entryDx=0;entryDy=0;entryPerimeter=0;" edge="1" parent="1" source="eOfoeHNz91V3WnYGeERz-3" target="eOfoeHNz91V3WnYGeERz-12">
          <mxGeometry width="50" height="50" relative="1" as="geometry">
            <mxPoint x="372.5" y="220" as="sourcePoint" />
            <mxPoint x="422.5" y="170" as="targetPoint" />
          </mxGeometry>
        </mxCell>
        <mxCell id="eOfoeHNz91V3WnYGeERz-20" value="&lt;div&gt;اطلاعات موقعیتی کاربر و نقاط مهم در قالب پیام &lt;br&gt;&lt;/div&gt;&lt;div&gt;CoT&lt;br&gt;&lt;/div&gt;" style="shape=note;size=20;whiteSpace=wrap;html=1;align=center;verticalAlign=bottom;" vertex="1" parent="1">
          <mxGeometry x="392.5" y="250" width="100" height="80" as="geometry" />
        </mxCell>
        <mxCell id="eOfoeHNz91V3WnYGeERz-21" value="&lt;div&gt;هر ۳۰ ثانیه&lt;/div&gt;&lt;div&gt;Broadcast&lt;br&gt;&lt;/div&gt;" style="text;html=1;align=center;verticalAlign=middle;whiteSpace=wrap;rounded=0;fontColor=#3333FF;" vertex="1" parent="1">
          <mxGeometry x="402.5" y="210" width="70" height="40" as="geometry" />
        </mxCell>
        <mxCell id="eOfoeHNz91V3WnYGeERz-22" value="اطلاعات موقعیتی" style="shape=note;size=20;whiteSpace=wrap;html=1;align=center;verticalAlign=bottom;" vertex="1" parent="1">
          <mxGeometry x="472.5" y="100" width="100" height="40" as="geometry" />
        </mxCell>
        <mxCell id="eOfoeHNz91V3WnYGeERz-23" value="کاشی‌ها ناحیه‌ی مشاهده شده" style="shape=note;size=20;whiteSpace=wrap;html=1;align=center;verticalAlign=bottom;" vertex="1" parent="1">
          <mxGeometry x="190" y="80" width="100" height="55" as="geometry" />
        </mxCell>
      </root>
    </mxGraphModel>
  </diagram>
</mxfile>
